# xmcd
#
# Track frame offsets:
#	150
#	16883
#	32760
#	49027
#	66791
#	83614
#	100161
#	116933
#	134955
#	154682
#	172291
#	187263
#	204856
#	220398
#	238021
#	255309
#	271952
#	287372
#	304728
#
# Disc length: 4256 seconds
#
# Revision: 1
# Processed by: cddbd v1.5.2PL0 Copyright (c) Steve Scherf et al.
# Submitted via: audiograbber 1.83.01
#
DISCID=15109e13
DTITLE=Various Artist - Promo Only Country Radio November 2006
DYEAR=2006
DGENRE=Country
TTITLE0=Trace Adkins - Ladies Love Country Boys
TTITLE1=Wreckers, The - My, Oh My
TTITLE2=Billy Currington - Good Directions
TTITLE3=Jake Owen - Startin' With Me
TTITLE4=Kellie Pickler - Red High Heels
TTITLE5=Little Big Town - Good As Gone
TTITLE6=Clay Walker - Fore She Was Mama
TTITLE7=Keith Anderson - Podunk
TTITLE8=Faith Hill - Stealing Kisses
TTITLE9=Rodney Atkins - Watching You
TTITLE10=Jimmy Wayne - That's All I'll Ever Need
TTITLE11=Ashley Monroe w/ Ronnie Dunn - I Don't Want To
TTITLE12=Steve Holy - Come On Rain
TTITLE13=Bob Segar - Wreck This Heart
TTITLE14=Lindsey Haun - Broken
TTITLE15=Kenny Rogers - The Last Ten Years
TTITLE16=Tyler Dean - Built For Bluejeans
TTITLE17=Frank Carillo And The Bandoleros - Red Queen
TTITLE18=Ty Herndon - Right About Now
EXTD=
EXTT0=
EXTT1=
EXTT2=
EXTT3=
EXTT4=
EXTT5=
EXTT6=
EXTT7=
EXTT8=
EXTT9=
EXTT10=
EXTT11=
EXTT12=
EXTT13=
EXTT14=
EXTT15=
EXTT16=
EXTT17=
EXTT18=
PLAYORDER=
